{"title":"The Twilight Samurai-720p MP4 AAC x264 BRRip 2002-CC","uid":8048553,"size":3379283786,"categoryP":"video","categoryS":"hd___movies","magnet":"?xt=urn:btih:0efde58835cb0bb00ae7a5d7f0ad6afae5aead2c&amp;dn=The+Twilight+Samurai-720p+MP4+AAC+x264+BRRip+2002-CC&amp;tr=udp%3A%2F%2Ftracker.openbittorrent.com%3A80&amp;tr=udp%3A%2F%2Fopen.demonii.com%3A1337&amp;tr=udp%3A%2F%2Ftracker.coppersurfer.tk%3A6969&amp;tr=udp%3A%2F%2Fexodus.desync.com%3A6969","seeders":2,"leechers":3,"uploader":"Caveman44","files":-1,"time":1358804403,"description":"Original title: Tasogare Seibei\n &lt;a href=&quot;\nhttp://www.imdb.com/title/tt0351817/&quot; rel=&quot;nofollow&quot; target=&quot;_NEW&quot;&gt;\nhttp://www.imdb.com/title/tt0351817/&lt;/a&gt;\n\nSource: The.Twilight.Samurai.2002.720p.BluRay.x264-HD Thanks!\n\nSubs: Arabic, Brazilian, Dutch, English, Farsi-Persian, German, Hungarian, Indonesian, Portuguese and Spanish.\n\nSample and screens included.\n\nGeneral\nComplete name                            : The Twilight Samurai-720p MP4 AAC x264 BRRip 2002-CC.mp4\nFormat                                   : MPEG-4\nFormat profile                           : Base Media\nCodec ID                                 : isom\nFile size                                : 3.11 GiB\nDuration                                 : 2h 9mn\nOverall bit rate mode                    : Variable\nOverall bit rate                         : 3 452 Kbps\nEncoded date                             : UTC 2013-01-06 16:41:53\n\nVideo\nID                                       : 1\nFormat                                   : AVC\nFormat/Info                              : Advanced Video Codec\nFormat profile                           : &lt;a class=&quot;__cf_email__&quot; href=&quot;/cdn-cgi/l/email-protection&quot; data-cfemail=&quot;2860414f4068641c0619&quot;&gt;[email&amp;#160;protected]&lt;/a&gt;&lt;script cf-hash='f9e31' type=&quot;text/javascript&quot;&gt;\n/* &lt;![CDATA[ */!function(){try{var t=&quot;currentScript&quot;in document?document.currentScript:function(){for(var t=document.getElementsByTagName(&quot;script&quot;),e=t.length;e--;)if(t[e].getAttribute(&quot;cf-hash&quot;))return t[e]}();if(t&amp;&amp;t.previousSibling){var e,r,n,i,c=t.previousSibling,a=c.getAttribute(&quot;data-cfemail&quot;);if(a){for(e=&quot;&quot;,r=parseInt(a.substr(0,2),16),n=2;a.length-n;n+=2)i=parseInt(a.substr(n,2),16)^r,e+=String.fromCharCode(i);e=document.createTextNode(e),c.parentNode.replaceChild(e,c)}}}catch(u){}}();/* ]]&gt; */&lt;/script&gt;\nFormat settings, CABAC                   : Yes\nFormat settings, ReFrames                : 5 frames\nCodec ID                                 : avc1\nCodec ID/Info                            : Advanced Video Coding\nDuration                                 : 2h 9mn\nBit rate                                 : 3 046 Kbps\nMaximum bit rate                         : 9 783 Kbps\nWidth                                    : 1 280 pixels\nHeight                                   : 692 pixels\nDisplay aspect ratio                     : 1.85:1\nFrame rate mode                          : Variable\nFrame rate                               : 23.976 fps\nMinimum frame rate                       : 19.133 fps\nMaximum frame rate                       : 24.390 fps\nColor space                              : YUV\nChroma subsampling                       : 4:2:0\nBit depth                                : 8 bits\nScan type                                : Progressive\nBits/(Pixel*Frame)                       : 0.143\nStream size                              : 2.76 GiB (89%)\nWriting library                          : x264 core 112\n\nAudio\nID                                       : 2\nFormat                                   : AAC\nFormat/Info                              : Advanced Audio Codec\nFormat profile                           : LC\nCodec ID                                 : 40\nDuration                                 : 2h 9mn\nBit rate mode                            : Variable\nBit rate                                 : 384 Kbps\nMaximum bit rate                         : 460 Kbps\nChannel(s)                               : 6 channels\nChannel positions                        : Front: L C R, Side: L R, LFE\nSampling rate                            : 48.0 KHz\nCompression mode                         : Lossy\nDelay relative to video                  : 83ms\nStream size                              : 354 MiB (11%)\nLanguage                                 : Japanese\n\nEnjoy...\n\nRequested by DreamExtractor \n\nComing soon: Apocalypse Hitler, The Big Heat, Frequency, Eternal Sunshine of the Spotless Mind and more..","torrent":{"xt":"urn:btih:0efde58835cb0bb00ae7a5d7f0ad6afae5aead2c","amp;dn":"The+Twilight+Samurai-720p+MP4+AAC+x264+BRRip+2002-CC","amp;tr":["udp%3A%2F%2Ftracker.openbittorrent.com%3A80","udp%3A%2F%2Fopen.demonii.com%3A1337","udp%3A%2F%2Ftracker.coppersurfer.tk%3A6969","udp%3A%2F%2Fexodus.desync.com%3A6969"],"infoHash":"0efde58835cb0bb00ae7a5d7f0ad6afae5aead2c","infoHashBuffer":{"type":"Buffer","data":[14,253,229,136,53,203,11,176,10,231,165,215,240,173,106,250,229,174,173,44]},"announce":[],"urlList":[]}}